<svg id="Layer_1" data-name="Layer 1" xmlns="http://www.w3.org/2000/svg" xmlns:xlink="http://www.w3.org/1999/xlink" viewBox="0 0 677.76 411.89"><defs><style>.cls-1,.cls-25,.cls-35,.cls-38,.cls-39,.cls-40{fill:none;}.cls-2{clip-path:url(#clip-path);}.cls-3{clip-path:url(#clip-path-2);}.cls-4{fill:url(#linear-gradient);}.cls-5{clip-path:url(#clip-path-3);}.cls-6{fill:url(#linear-gradient-2);}.cls-7{clip-path:url(#clip-path-4);}.cls-8{fill:url(#linear-gradient-3);}.cls-9{clip-path:url(#clip-path-5);}.cls-10{fill:url(#linear-gradient-4);}.cls-11{clip-path:url(#clip-path-6);}.cls-12{clip-path:url(#clip-path-7);}.cls-13{fill:url(#linear-gradient-6);}.cls-14{clip-path:url(#clip-path-8);}.cls-15{fill:url(#linear-gradient-7);}.cls-16{clip-path:url(#clip-path-9);}.cls-17{fill:url(#linear-gradient-8);}.cls-18{clip-path:url(#clip-path-10);}.cls-19{fill:url(#linear-gradient-9);}.cls-20{clip-path:url(#clip-path-11);}.cls-21{fill:url(#linear-gradient-10);}.cls-22{fill:url(#linear-gradient-11);}.cls-23{clip-path:url(#clip-path-13);}.cls-24{fill:url(#linear-gradient-12);}.cls-25{stroke:#353c97;stroke-width:1.07px;}.cls-25,.cls-35{stroke-miterlimit:10;}.cls-26,.cls-27{font-size:25.76px;fill:#1b1464;}.cls-26{font-family:DGGhayaty, DG Ghayaty;}.cls-27{font-family:AraEtabAlMonie_ee-Medium, AraEtabAlMonie_ee;font-weight:500;}.cls-28{clip-path:url(#clip-path-15);}.cls-29{clip-path:url(#clip-path-16);}.cls-30{fill:url(#radial-gradient);}.cls-31{clip-path:url(#clip-path-17);}.cls-32{fill:url(#radial-gradient-2);}.cls-33,.cls-41,.cls-42{fill:#fff;}.cls-34{fill:#b3cde0;}.cls-35{stroke:#fff;stroke-width:3.83px;}.cls-36{fill:#ffd66b;}.cls-37{fill:#ef9b0f;}.cls-38,.cls-39,.cls-40{stroke:#ef9b0f;}.cls-38,.cls-39{stroke-linejoin:round;}.cls-38,.cls-40{stroke-width:0.43px;}.cls-39{stroke-width:5.54px;}.cls-40{stroke-linecap:round;stroke-linejoin:bevel;}.cls-41{font-size:66.03px;}.cls-41,.cls-42{font-family:FingerPaint-Regular, Finger Paint;}.cls-42{font-size:60.75px;}</style><clipPath id="clip-path" transform="translate(22.22 35.93)"><rect class="cls-1" x="323" y="20" width="336.5" height="348.11"/></clipPath><clipPath id="clip-path-2" transform="translate(22.22 35.93)"><path class="cls-1" d="M518.44,95.32a69.55,69.55,0,0,0-14.31,20,72,72,0,0,0-5.72,17.18c2.58-5.29,12.84-24.65,34.34-31.48,5.57-1.78,16.9-5.38,28.61,0a33.08,33.08,0,0,1,14.31,12.87c9.74,16.17,1.3,34.5,0,37.21-2.62,5.48-9.6,20-24.32,21.46-11.8,1.16-23-6.64-27.19-15.74-5.1-11.17,1.93-21.06-1.43-22.89-4.81-2.64-25.4,14.34-22.89,31.48.22,1.53.89,5,4.29,10,8.61,12.68,24.6,20.27,38.63,21.47C567.7,199,596.18,181.8,604.29,154c5.32-18.23,2.51-43.12-15.74-58.67A52.79,52.79,0,0,0,553.94,83c-14.16,0-27.53,5-35.5,12.3"/></clipPath><linearGradient id="linear-gradient" x1="-24.5" y1="-48.11" x2="-23.07" y2="-48.11" gradientTransform="matrix(0, 113.09, 113.09, 0, 5993.97, 2837.7)" gradientUnits="userSpaceOnUse"><stop offset="0" stop-color="#0069d4"/><stop offset="0.06" stop-color="#0069d4"/><stop offset="0.14" stop-color="#005ac5"/><stop offset="0.37" stop-color="#00339e"/><stop offset="0.59" stop-color="#001782"/><stop offset="0.77" stop-color="#000671"/><stop offset="0.91" stop-color="#00006b"/><stop offset="1" stop-color="#00006b"/></linearGradient><clipPath id="clip-path-3" transform="translate(22.22 35.93)"><path class="cls-1" d="M547.06,102.48c-5.37.21-15.06,1.78-30,14.31-12.78,10.68-14.55,16.91-25.76,30-4.78,5.6-24.5,37-48.65,37.21-4.61,0-14.09-1-25.75-11.45-.63,4-2.21,17,5.72,25.76,13.07,14.5,40.35,4.71,41.5,4.29,16.65-6.17,27.87-21.71,50.08-52.94,9.68-13.62,14.18-20.31,24.32-25.76,12.66-6.81,26.07-6.87,35.77-5.72a24.71,24.71,0,0,0-5.72-8.59c-6.7-6.47-15.45-7.19-19.72-7.19-.72,0-1.31,0-1.74,0"/></clipPath><linearGradient id="linear-gradient-2" x1="-25.56" y1="-50.21" x2="-24.13" y2="-50.21" gradientTransform="matrix(110.39, 0, 0, -110.39, 3259.77, -5348.86)" gradientUnits="userSpaceOnUse"><stop offset="0" stop-color="#cb823d"/><stop offset="0.07" stop-color="#d89a4c"/><stop offset="0.19" stop-color="#e9b961"/><stop offset="0.3" stop-color="#f5d070"/><stop offset="0.4" stop-color="#fcde79"/><stop offset="0.49" stop-color="#ffe37c"/><stop offset="0.64" stop-color="#edc267"/><stop offset="0.88" stop-color="#d59449"/><stop offset="1" stop-color="#cb823d"/><stop offset="1" stop-color="#cb823d"/></linearGradient><clipPath id="clip-path-4" transform="translate(22.22 35.93)"><path class="cls-1" d="M431.16,56.69c-13.34,4.53-30.83,15.91-33.63,32.19-.39,2.28-1.73,10.08,2.86,15.74,6.82,8.41,21.17,5.25,22.18,5a27.83,27.83,0,0,0,12.16-6.44c-.39-.06-9-1.64-11.44-8.58C421,88.15,426,82.2,427.58,80.3c6.85-8.09,21.61-12.76,31.48-5.73,8.32,5.93,8.57,16.9,8.58,18.61.09,13.21-10.95,22.28-18.6,28.61a71.92,71.92,0,0,1-28.62,14.31c5.11.27,16.53,1.6,25.76,10,16.28,14.85,19,45.66,2.86,60.1-10.22,9.14-26.94,10.33-38.63,4.29-2.92-1.51-11.15-5.76-13.6-15-2.33-8.82,2.18-16.1,2.87-17.17a23,23,0,0,1,15.74-10,16,16,0,0,0-4.3-7.16c-7.15-6.65-18.49-3.33-20-2.86-14.47,4.46-19.34,21.86-20,24.33-5.89,21,7.65,38.87,8.58,40.06,15.51,19.83,41.92,18.85,48.65,18.6,23.49-.86,52.21-14.2,62.25-40.78.9-2.38,11.51-31.83-5.73-51.51a42,42,0,0,0-19.31-12.16c21.7-6.23,36.64-22,37.91-39.35.94-12.73-5.78-22.2-7.86-25C485.74,59,468.86,53.27,452.5,53.27a67.16,67.16,0,0,0-21.34,3.42"/></clipPath><linearGradient id="linear-gradient-3" x1="-26.43" y1="-49.55" x2="-25" y2="-49.55" gradientTransform="matrix(137.18, 0, 0, -137.18, 3973.01, -6612.79)" gradientUnits="userSpaceOnUse"><stop offset="0" stop-color="#0069d4"/><stop offset="0.2" stop-color="#0058c2"/><stop offset="0.61" stop-color="#002e93"/><stop offset="1" stop-color="#000061"/></linearGradient><clipPath id="clip-path-5" transform="translate(22.22 35.93)"><path class="cls-1" d="M521.65,68.87a4.46,4.46,0,0,1-.94-1.8c-.1-.5-.15-.78-.15-.83a10.19,10.19,0,0,1,.92-6.15,8.94,8.94,0,0,1,2.24-2.92,5.44,5.44,0,0,1,3.39-1.28,4.13,4.13,0,0,1,3,.84,3,3,0,0,1,.92,1.61,4.51,4.51,0,0,1-.13,1.71,32.47,32.47,0,0,1-2,4.69,19,19,0,0,1-2.46,3.68,3.65,3.65,0,0,1-2.64,1.48,2.54,2.54,0,0,1-2.12-1M532,56.48q-1.77-2.9-3.18-3.52a8.22,8.22,0,0,0-3.33-.61,10.57,10.57,0,0,0-5.89,1.7,13.47,13.47,0,0,0-4.25,4.44,14.36,14.36,0,0,0-2,5.91,14.66,14.66,0,0,0,.16,3.73,10.3,10.3,0,0,0,.49,1.91,7.82,7.82,0,0,0,2.63,3.75,6.78,6.78,0,0,0,4.17,1.32A6.17,6.17,0,0,0,525,73.43,29.69,29.69,0,0,0,529.56,67a27,27,0,0,0-.16,4.67c.36,1.83,1.05,2.88,2.07,3.17a9.7,9.7,0,0,0,2.42.42,8.49,8.49,0,0,0,3.35-.67,6.36,6.36,0,0,1-.52-1.82,11.43,11.43,0,0,1,0-3.26A44.42,44.42,0,0,1,538,63.15c.46-1.76.79-3.27,1-4.56a9.81,9.81,0,0,0,.07-3.17,3.24,3.24,0,0,0-.2-.76c-.25-.6-1-1.12-2.32-1.57a15.12,15.12,0,0,0-4.14-.79,26.66,26.66,0,0,1-.34,4.18"/></clipPath><linearGradient id="linear-gradient-4" x1="-25.17" y1="-50.11" x2="-23.74" y2="-50.11" gradientTransform="matrix(104.86, 0, 0, -104.86, 3148.64, -5154.95)" gradientUnits="userSpaceOnUse"><stop offset="0" stop-color="#cb823d"/><stop offset="0.02" stop-color="#cd8640"/><stop offset="0.29" stop-color="#f1c96b"/><stop offset="0.42" stop-color="#ffe37c"/><stop offset="0.56" stop-color="#ebbd63"/><stop offset="0.73" stop-color="#d49248"/><stop offset="0.82" stop-color="#cb823d"/><stop offset="1" stop-color="#cb823d"/></linearGradient><clipPath id="clip-path-6" transform="translate(22.22 35.93)"><path class="cls-1" d="M556.64,53.17A29.29,29.29,0,0,0,553,55.32a34.2,34.2,0,0,0-4.93,4.44,17.07,17.07,0,0,0,.22-4.34,4.46,4.46,0,0,0-.18-.78,3.84,3.84,0,0,0-2.34-1.55,15,15,0,0,0-4.12-.79,13.48,13.48,0,0,1-.28,4.31c-.36,1.87-.79,3.8-1.32,5.77s-.85,3.55-1.17,5.16a11.9,11.9,0,0,0-.24,4.09c.36,1.81,1,2.86,2.08,3.14a9.41,9.41,0,0,0,2.43.43,8.62,8.62,0,0,0,3.32-.65,6,6,0,0,1-.56-1.86,12.66,12.66,0,0,1,.38-5.57,15.47,15.47,0,0,1,2.08-4.46,19.71,19.71,0,0,1,2.77-3.29,7.82,7.82,0,0,1,2.07-1.53,3.14,3.14,0,0,1,.92-.24,1,1,0,0,1,1,.88,3,3,0,0,1,0,.44,56.32,56.32,0,0,1-1.32,5.64c-.37,1.32-.67,2.55-.88,3.72a10.52,10.52,0,0,0-.09,3.35c.36,1.83,1.06,2.88,2.08,3.17a9.86,9.86,0,0,0,2.41.42,8.39,8.39,0,0,0,3.35-.67,6.43,6.43,0,0,1-.43-1.59c-.36-2.08.12-5.45,1.44-10.08.54-2,.93-3.63,1.17-5a9.94,9.94,0,0,0,.15-3.26,4.74,4.74,0,0,0-.29-1,2,2,0,0,0-1.57-1.21c-.64-.08-1.07-.12-1.28-.12a7.48,7.48,0,0,0-3.27.87"/></clipPath><clipPath id="clip-path-7" transform="translate(22.22 35.93)"><path class="cls-1" d="M567,67v0m6.82-14.63q-8,.49-9.63,4.6a5.59,5.59,0,0,0-.34,2.9,7,7,0,0,0,.74,1.93,9.6,9.6,0,0,0,4.87,3.73,9.93,9.93,0,0,1,3,1.74,2.81,2.81,0,0,1,.94,1.6,2.62,2.62,0,0,1-.18,1.53,2.66,2.66,0,0,1-1.11,1.14,2.81,2.81,0,0,1-1.29.36,4,4,0,0,1-1.35-.27,3.25,3.25,0,0,1-1.9-1.67,10.81,10.81,0,0,1-.41-1.51A13.47,13.47,0,0,1,567,67c0,.16-.12.23-.31.2a4.38,4.38,0,0,0-.75-.06,5.68,5.68,0,0,0-3,.77,2.85,2.85,0,0,0-1.25,1.59,3.21,3.21,0,0,0-.14,1.57,2.72,2.72,0,0,0,.56,1.24,6.77,6.77,0,0,0,3.1,2.06,16.61,16.61,0,0,0,5.77.9q6.84,0,9.54-4.18a4.67,4.67,0,0,0,.74-3.32q-.6-3.53-6.76-6.17a12.15,12.15,0,0,1-2.57-1.37,3.12,3.12,0,0,1-1.38-2,4.25,4.25,0,0,1,0-1,2.55,2.55,0,0,1,2.72-1.91l.4,0c1.56.12,2.54.55,2.94,1.28a6.57,6.57,0,0,1,.77,2c0,.31.07.62.08.91a.3.3,0,0,0,0,.19v-.19c0-.09.17-.13.36-.13a4.43,4.43,0,0,0,2.86-1,2.81,2.81,0,0,0,.92-1.62,3.56,3.56,0,0,0,0-1.17A3.21,3.21,0,0,0,580,53.54a9.42,9.42,0,0,0-5.09-1.17Z"/></clipPath><linearGradient id="linear-gradient-6" x1="-25.17" y1="-50.11" x2="-23.74" y2="-50.11" xlink:href="#linear-gradient-4"/><clipPath id="clip-path-8" transform="translate(22.22 35.93)"><path class="cls-1" d="M522,204.54a1.33,1.33,0,0,0-.19.73l.06.62a6.19,6.19,0,0,0,.3,1.61,5.31,5.31,0,0,1,.22.72A2.6,2.6,0,0,1,524,208a10.15,10.15,0,0,1,3.31.64,9.34,9.34,0,0,0,0-1,10.8,10.8,0,0,0-.34-2,3.82,3.82,0,0,0-.56-1.26,6,6,0,0,0-1.88-.52l-.78,0a1.9,1.9,0,0,0-1.65.8"/></clipPath><linearGradient id="linear-gradient-7" x1="-25.18" y1="-50.44" x2="-23.75" y2="-50.44" gradientTransform="matrix(104.86, 0, 0, -104.86, 3145.72, -5046.85)" xlink:href="#linear-gradient-4"/><clipPath id="clip-path-9" transform="translate(22.22 35.93)"><path class="cls-1" d="M514.87,204.54a1.32,1.32,0,0,0-.18.73l.06.62a5.46,5.46,0,0,0,.3,1.61,6.17,6.17,0,0,1,.21.72,2.64,2.64,0,0,1,1.55-.27,10.14,10.14,0,0,1,3.3.64,7.32,7.32,0,0,0,0-1,10,10,0,0,0-.34-2,3.82,3.82,0,0,0-.56-1.26,5.94,5.94,0,0,0-1.87-.52l-.79,0a1.92,1.92,0,0,0-1.65.8"/></clipPath><linearGradient id="linear-gradient-8" x1="-25.21" y1="-50.44" x2="-23.77" y2="-50.44" gradientTransform="matrix(104.86, 0, 0, -104.86, 3140.72, -5046.85)" xlink:href="#linear-gradient-4"/><clipPath id="clip-path-10" transform="translate(22.22 35.93)"><path class="cls-1" d="M518.85,226.66a8.9,8.9,0,0,1-1.25-3.83l0-.2a8.83,8.83,0,0,1,.29-3,7,7,0,0,1,1.49-2.94,4.48,4.48,0,0,1,3.6-1.59,3.92,3.92,0,0,1,2.42.7,2.54,2.54,0,0,1,1,2,3.57,3.57,0,0,1,0,.66,33.06,33.06,0,0,1-1,4.58,14.81,14.81,0,0,1-1.57,3.64,3.26,3.26,0,0,1-2.22,1.68h-.12a3,3,0,0,1-2.67-1.65m7.43-15.51a25.9,25.9,0,0,1,.47,3.87,9.36,9.36,0,0,0-3.38-2.87,8.56,8.56,0,0,0-2.47-.4c-.33,0-.67,0-1,.06a9.26,9.26,0,0,0-5.12,2.16,10.23,10.23,0,0,0-3,4.37,12.12,12.12,0,0,0-.73,5.26l0,.5a13.24,13.24,0,0,0,1.71,5.22,8.52,8.52,0,0,0,3.12,3.25,7.17,7.17,0,0,0,3.61,1,9.37,9.37,0,0,0,1-.07q3.53-.56,6.06-8a11.62,11.62,0,0,0,1.24,4.38,6.28,6.28,0,0,0,2.66,2.22,12.71,12.71,0,0,0,4.67,1.07,6.18,6.18,0,0,0,1,0,7.46,7.46,0,0,0,8.24-2.55A10.36,10.36,0,0,0,545.5,229a8.9,8.9,0,0,0,2.93,3.12,9.85,9.85,0,0,0,5.9,1.62c1.71-.2,2.87-.77,3.46-1.75a7.74,7.74,0,0,0,.67-4.46,23.25,23.25,0,0,0,3.58,3.78,17.37,17.37,0,0,0,2.85,1.83,6.57,6.57,0,0,0,3.5.73,2.78,2.78,0,0,0,2.25-1.28c.44-.94.53-2.8.21-5.56a24.2,24.2,0,0,0,3.72,4.18,18,18,0,0,0,2.95,1.93,6.72,6.72,0,0,0,3.55.73,2.74,2.74,0,0,0,2.25-1.28,6.89,6.89,0,0,0,.37-3.56,49.19,49.19,0,0,0-.79-4.95c-.29-1.37-.54-2.73-.74-4.11a18.38,18.38,0,0,1-.2-3.87,6.23,6.23,0,0,1,.63-2.78,7.5,7.5,0,0,0-3-.6,4.59,4.59,0,0,0-2.83.84,4.15,4.15,0,0,0-1.53,2.58,10.93,10.93,0,0,0-.14,3.43c.12,1.18.34,2.45.61,3.81s.53,2.85.73,4.46c.1,1.39-.34,1.69-1.33.89a15.63,15.63,0,0,1-2.85-3.19,19.8,19.8,0,0,1-2.29-4.32,7.33,7.33,0,0,1-.47-4.27,5.2,5.2,0,0,1,.47-1.56,7.4,7.4,0,0,0-3.06-.61,4.69,4.69,0,0,0-2.82.84,4.1,4.1,0,0,0-1.52,2.58,9.28,9.28,0,0,0-.14,2.62,19.5,19.5,0,0,0,.49,2.44,33,33,0,0,1,.86,4.55c.1,1.24-.22,1.62-.93,1.16a8.47,8.47,0,0,1-2-1.87,16.52,16.52,0,0,1-1.67-2.53,4.57,4.57,0,0,1-.72-2.26c0-.46-.07-.95-.13-1.45-.08-.67-.14-1.36-.16-2a3.06,3.06,0,0,1,.19-1.36,7.74,7.74,0,0,0-3.09-.6,4.69,4.69,0,0,0-2.82.84,4.18,4.18,0,0,0-1.53,2.54,10.13,10.13,0,0,0-.07,3.11c.13,1.05.31,2.12.54,3.22,0,.09.06.69.1,1.84s-.47,1.7-1.51,1.7-2.11-.87-3.15-2.63c-.15-.23-.27-.45-.39-.66.06-.23.1-.46.14-.69a27.36,27.36,0,0,0,.41-3.93,30.77,30.77,0,0,0-.85-6.63,2.57,2.57,0,0,0-1.27-2.17,4.81,4.81,0,0,0-2.19-.5,7,7,0,0,0-1.09.08,8.87,8.87,0,0,0-3.18,1.15,7.42,7.42,0,0,1,1,2.63,15.23,15.23,0,0,1,.51,3.29c0,.84.05,1.33.05,1.49a14.41,14.41,0,0,1-.46,3.72A4.22,4.22,0,0,1,537.5,228a4.61,4.61,0,0,1-1.93.5,3.11,3.11,0,0,1-1.38-.32,3.3,3.3,0,0,1-.44-1.51,46.53,46.53,0,0,1,0-5.78c.09-1.67.1-2.89.06-3.64s-.06-1.18-.06-1.24a7.48,7.48,0,0,0-.87-3.19,3.72,3.72,0,0,0-2.32-1.26,15.88,15.88,0,0,0-3.62-.4Z"/></clipPath><linearGradient id="linear-gradient-9" x1="-25.18" y1="-50.6" x2="-23.75" y2="-50.6" gradientTransform="matrix(104.86, 0, 0, -104.86, 3147.72, -5046.85)" xlink:href="#linear-gradient-4"/><clipPath id="clip-path-11" transform="translate(22.22 35.93)"><path class="cls-1" d="M539,205.39a2.52,2.52,0,0,0-.26,1.26,6.61,6.61,0,0,0,.19,1.65c.13.51.18.75.18.75a3,3,0,0,1,1.89-.26,12.73,12.73,0,0,1,3.19.7q-.25-.11-.21-.33a7.09,7.09,0,0,0,0-1.1,11.73,11.73,0,0,0-.21-1.67,3.69,3.69,0,0,0-.45-1.26,7,7,0,0,0-2.37-.55h-.17a2.18,2.18,0,0,0-1.79.81"/></clipPath><linearGradient id="linear-gradient-10" x1="-25.17" y1="-50.44" x2="-23.74" y2="-50.44" gradientTransform="matrix(104.86, 0, 0, -104.86, 3148.15, -5046.6)" xlink:href="#linear-gradient-4"/><linearGradient id="linear-gradient-11" x1="-25.18" y1="-50.45" x2="-23.75" y2="-50.45" gradientTransform="matrix(104.86, 0, 0, -104.86, 3147.72, -5046.85)" xlink:href="#linear-gradient-4"/><clipPath id="clip-path-13" transform="translate(22.22 35.93)"><path class="cls-1" d="M437.06,300.93a2.2,2.2,0,0,1-1.37-.18l-.13.56a4.61,4.61,0,0,0-.14,1.16,1.62,1.62,0,0,0,.18.9,1.64,1.64,0,0,0,1.32.58H437a5.13,5.13,0,0,0,1.68-.38,3.22,3.22,0,0,0,.31-.9,7.39,7.39,0,0,0,.16-1.18,7.27,7.27,0,0,0,0-.8.21.21,0,0,1,.14-.24,8.9,8.9,0,0,1-2.22.48m-50.86,0a2.18,2.18,0,0,1-1.36-.18s0,.18-.14.56a4.63,4.63,0,0,0-.13,1.16,1.54,1.54,0,0,0,.18.9,1.62,1.62,0,0,0,1.31.58h.1a5,5,0,0,0,1.67-.38,2.92,2.92,0,0,0,.31-.9,7.39,7.39,0,0,0,.16-1.18,7.27,7.27,0,0,0,0-.8.21.21,0,0,1,.15-.24,8.88,8.88,0,0,1-2.23.48m4.47,0a2.14,2.14,0,0,1-1.34-.18,6.77,6.77,0,0,0-.29,1.72,1.6,1.6,0,0,0,.2.9,1.57,1.57,0,0,0,1.3.58h.09a5.25,5.25,0,0,0,1.7-.38,4,4,0,0,0,.31-.9,5.53,5.53,0,0,0,.13-1.18v-.8a.22.22,0,0,1,.16-.24,9.37,9.37,0,0,1-2.26.48m50.86,0a2.14,2.14,0,0,1-1.34-.18,6.77,6.77,0,0,0-.29,1.72,1.6,1.6,0,0,0,.2.9,1.55,1.55,0,0,0,1.29.58h.09a5.19,5.19,0,0,0,1.7-.38,4.53,4.53,0,0,0,.32-.9,5.53,5.53,0,0,0,.13-1.18v-.8c0-.11,0-.19.16-.24a9.37,9.37,0,0,1-2.26.48m-53.1-.48.1,0-.1,0m4.5,0,.09,0-.09,0m46.35,0,.1,0-.1,0m4.51,0,.09,0-.09,0m137.92-7.76h0m5-6.22h0m3.26,5.07s.07,0,0,0h0l0,0m10.24,4.25a2.64,2.64,0,0,1-.92-2.08v-.11a5.05,5.05,0,0,1,.59-2.19,7,7,0,0,1,1.14-1.48,2.67,2.67,0,0,1,1.16-.78,2.83,2.83,0,0,1,.71-.13,2,2,0,0,1,1.15.42,2.79,2.79,0,0,1,.82,1.3,6,6,0,0,1,.16,1.09,3.7,3.7,0,0,1-.07.76,5.51,5.51,0,0,1-.49,1.5,3.17,3.17,0,0,1-2.88,2.19,2.1,2.1,0,0,1-1.37-.49m-1.7-8.7a7.73,7.73,0,0,0-2.86,5.06,8.36,8.36,0,0,0-.11,1.47,7.39,7.39,0,0,0,.15,1.52,2.7,2.7,0,0,1-1.81.72,1.94,1.94,0,0,1-.89-.21,3.06,3.06,0,0,1-.54-.34c-.06-1.7-.08-2.68-.08-3s0-.52-.06-.83a7,7,0,0,1-.09-1.21,1.77,1.77,0,0,1,.09-.76,3.76,3.76,0,0,0-2.64-.22,2.26,2.26,0,0,0-1.63,1.83,5.22,5.22,0,0,0,0,1.81,17.16,17.16,0,0,0,.32,1.88c.15.72.26,1.41.35,2.1a6.83,6.83,0,0,1,0,1.43,5.06,5.06,0,0,1-1.65,1.21,7,7,0,0,1-2.15.54,9.84,9.84,0,0,1-2.14-.16,7.1,7.1,0,0,1-3.29-1.68,3.64,3.64,0,0,1-1.34-2.61,2.48,2.48,0,0,1,.53-1.61,3.21,3.21,0,0,1,1.37-1,4.65,4.65,0,0,1,1.72-.38c-.08,0-.11-.11-.07-.3a6.49,6.49,0,0,0,0-.89,2.53,2.53,0,0,0-.31-1,1.35,1.35,0,0,0-.78-.63,2.92,2.92,0,0,0-1.75.14,4.45,4.45,0,0,0-1.65,1.18,6.83,6.83,0,0,0-1.26,2.1,7.44,7.44,0,0,0-.49,2.78,8.19,8.19,0,0,0,.74,3.42,8.3,8.3,0,0,0,2.17,2.84,9.58,9.58,0,0,0,3.51,1.76,10.35,10.35,0,0,0,2.44.29,10.07,10.07,0,0,0,2.5-.31,9,9,0,0,0,4-2.14,5.49,5.49,0,0,0,1.7-3.63c0-.11,0-.22,0-.34a3.13,3.13,0,0,0,1.79,1.12c.71.07,1.18.14,1.39.14a4.52,4.52,0,0,0,2.47-.76,6.49,6.49,0,0,0,2.15.73,9.28,9.28,0,0,0,1.3.19,4.19,4.19,0,0,1,.67,0,5.75,5.75,0,0,0,4.65-2.22,9.39,9.39,0,0,0,1.63-4,6,6,0,0,0,.14-1.27,6.51,6.51,0,0,0-.36-2.06,6.62,6.62,0,0,0-1.77-2.63,5.23,5.23,0,0,0-2.68-1.35,9.48,9.48,0,0,0-1.25-.11,6.53,6.53,0,0,0-4,1.34m-14.88-1.32a3.83,3.83,0,0,0-.16.72,6.75,6.75,0,0,0-.08,1.09,2.3,2.3,0,0,0,.11.86,4.3,4.3,0,0,0,1.47.64,2,2,0,0,0,.46.06,1.32,1.32,0,0,0,.88-.32,1.6,1.6,0,0,0,.32-.77,3.71,3.71,0,0,0,.09-1.09,2.65,2.65,0,0,1,0-.49,1.94,1.94,0,0,1-1.25-.09,7.2,7.2,0,0,1-2-.9c.13.09.18.19.14.29m-.14-.29,0,0,0,0m-201.4,5.75s.06,0,0,0h0v0m-7.3,3.2a5.64,5.64,0,0,1-.81-2.49l0-.13a6,6,0,0,1,.2-2,4.77,4.77,0,0,1,1-1.92,3,3,0,0,1,2.35-1,2.52,2.52,0,0,1,1.56.47,1.69,1.69,0,0,1,.67,1.3v.42a19,19,0,0,1-.62,3,9.73,9.73,0,0,1-1,2.4,2.05,2.05,0,0,1-1.43,1.07h-.09a2,2,0,0,1-1.74-1.07m4.85-10.11a21.28,21.28,0,0,1,.31,2.53,6.29,6.29,0,0,0-2.21-1.86,5.1,5.1,0,0,0-1.62-.27c-.22,0-.42,0-.64,0a6,6,0,0,0-3.35,1.41,6.7,6.7,0,0,0-2,2.84,8,8,0,0,0-.47,3.42l0,.33a8.68,8.68,0,0,0,1.09,3.4,5.72,5.72,0,0,0,2,2.12,4.64,4.64,0,0,0,2.37.65,4,4,0,0,0,.67,0c1.52-.22,2.82-2,3.94-5.21a7.44,7.44,0,0,0,.8,2.86,4,4,0,0,0,1.74,1.45,8.42,8.42,0,0,0,3.05.7,4.74,4.74,0,0,0,1,0,5.07,5.07,0,0,0,1.41.21,4.89,4.89,0,0,0,3.91-1.92l.15-.18a7.77,7.77,0,0,0,1.76,1.77l.23.14a2,2,0,0,0,.54.22,2.06,2.06,0,0,0,.76.11h.15a4.43,4.43,0,0,0,2.64-1.55c.56.81,1.68,1.19,3.35,1.19a7.2,7.2,0,0,0,1,0,5,5,0,0,1-.33-1.88v-1.46c0-.84,0-1.69.07-2.59s.08-1.7.08-2.5v-.61a7.65,7.65,0,0,0-.35-2.34c-.45-1-.94-1.59-1.48-1.66s-.87-.09-1-.09a4.7,4.7,0,0,0-2.52.76,5.69,5.69,0,0,1,.62,1.75,12.61,12.61,0,0,1,.34,2.21c0,.58,0,.94,0,1.07a9,9,0,0,1-.31,2.42,2.62,2.62,0,0,1-1.23,1.83,3,3,0,0,1-1.32.34,1.91,1.91,0,0,1-.8-.16,3.71,3.71,0,0,1-1.25-.78,5.9,5.9,0,0,0,.23-.92,16.05,16.05,0,0,0,.27-2.52,20.9,20.9,0,0,0-.56-4.36,1.74,1.74,0,0,0-.83-1.44,3.3,3.3,0,0,0-1.41-.33,3.78,3.78,0,0,0-.74.07,5.37,5.37,0,0,0-2,.76,5.74,5.74,0,0,1,.62,1.72,9,9,0,0,1,.34,2.14c0,.56,0,.88,0,1a9.82,9.82,0,0,1-.29,2.41,2.73,2.73,0,0,1-1.23,1.81,2.91,2.91,0,0,1-1.25.34,1.75,1.75,0,0,1-.9-.23q-.24-.12-.48-.27a3,3,0,0,1-.11-.62,26.54,26.54,0,0,1,0-3.78c0-1.07,0-1.88,0-2.37s0-.76,0-.81a5.23,5.23,0,0,0-.58-2.07,2.57,2.57,0,0,0-1.52-.83,10.2,10.2,0,0,0-2.35-.27Zm167.64-.38-.11,0,.11,0m4.62,0H552l-.2-.07s.06.07.15.07m-118.4-.63-.14-.05.14.05m63,11.14a5.64,5.64,0,0,1-.81-2.49l0-.13a6.3,6.3,0,0,1,.2-2,4.77,4.77,0,0,1,1-1.92,3,3,0,0,1,2.35-1,2.52,2.52,0,0,1,1.56.47,1.69,1.69,0,0,1,.67,1.3v.42a19,19,0,0,1-.62,3,9.73,9.73,0,0,1-1,2.4,2.07,2.07,0,0,1-1.43,1.07h-.09a2,2,0,0,1-1.74-1.07m15.37-2.67a3,3,0,0,1-.87-1.27,3.74,3.74,0,0,1-.25-1.36,4.59,4.59,0,0,1,.38-1.86A3.16,3.16,0,0,1,512,286a2.34,2.34,0,0,1,1.45-.54,1.78,1.78,0,0,1,1.39.63,3.36,3.36,0,0,1,.74,1.41,6.42,6.42,0,0,1,.2,1.52v.24a3.88,3.88,0,0,1-.62,2,2.23,2.23,0,0,1-1.82,1,2,2,0,0,1-1.47-.57m1.52-8.67a7.54,7.54,0,0,0-3.62.8,5.15,5.15,0,0,0-2.17,2.11,4.69,4.69,0,0,0-.47,2.82,5.44,5.44,0,0,0,1.83,4,5.83,5.83,0,0,0,3.58,1.56,5.3,5.3,0,0,0,3.33-.87c-1.79,2.41-3.91,3.38-6.33,2.93a10.42,10.42,0,0,1-3-1,2.34,2.34,0,0,1-.28-1,26.54,26.54,0,0,1,0-3.78c0-1.07,0-1.88,0-2.37s0-.76,0-.81a5.23,5.23,0,0,0-.58-2.07,2.57,2.57,0,0,0-1.52-.83,10.14,10.14,0,0,0-2.35-.27h-.4a21.28,21.28,0,0,1,.31,2.53,6.2,6.2,0,0,0-2.21-1.86,5.08,5.08,0,0,0-1.61-.27c-.23,0-.43,0-.65,0a6,6,0,0,0-3.35,1.41,6.7,6.7,0,0,0-2,2.84,8.14,8.14,0,0,0-.47,3.42l0,.33a8.37,8.37,0,0,0,1.1,3.4,5.62,5.62,0,0,0,2,2.12,4.66,4.66,0,0,0,2.37.65,4,4,0,0,0,.67,0c1.52-.22,2.82-2,3.94-5.21a7.62,7.62,0,0,0,.8,2.86,4,4,0,0,0,1.74,1.45,6.57,6.57,0,0,0,.71.29,8.31,8.31,0,0,0,3,1.91,6.4,6.4,0,0,0,2,.29,15.89,15.89,0,0,0,3.51-.47,8,8,0,0,0,5.35-4.37,12.72,12.72,0,0,0,1.45-7,6,6,0,0,0-1.12-3.13,5.67,5.67,0,0,0-2.41-1.85,7.42,7.42,0,0,0-2.88-.55h-.34m-136.63-.33-.11-.05.11.05m121.73,0-.12-.05a.33.33,0,0,0,.12.05m5.36-.09s0,.06.2.06h.05l-.25-.07Zm-121.72,0s0,.06.2.06h.05l-.25-.08Zm73.21-.71V282l0-.05Zm60.13-.57-.27-.09c0,.07.09.09.27.09m20.23-.24-.11,0,.11,0m5.07,0-.26-.09c0,.07.1.09.26.09m-84.43.23c.18.27.36.38.52.38H457a7.42,7.42,0,0,1-1-1.11,1.7,1.7,0,0,0,.42.73m1.53-.68a2,2,0,0,0,.26.41c.29.45.54.65.74.65h.06a7.56,7.56,0,0,1-1.07-1.21Zm85.49.19a1.64,1.64,0,0,0-.21.93,6.61,6.61,0,0,0,.31,1.79c.18-.17.65-.22,1.39-.17a8.8,8.8,0,0,1,2.31.49.22.22,0,0,1-.14-.25,8.16,8.16,0,0,0,0-.83,5.62,5.62,0,0,0-.13-1.22,3.13,3.13,0,0,0-.34-1,6.08,6.08,0,0,0-1.76-.38h-.17a1.57,1.57,0,0,0-1.28.59m4.71,0a1.93,1.93,0,0,0-.18,1,6.71,6.71,0,0,0,.29,1.72,2,2,0,0,1,1.12-.2,8.15,8.15,0,0,1,2.44.47.08.08,0,0,1,0-.07,4.9,4.9,0,0,0,0-.64,5,5,0,0,0-.49-2.49,4.59,4.59,0,0,0-1.36-.35l-.56-.05a1.55,1.55,0,0,0-1.3.61M430,280.56a1.64,1.64,0,0,0-.15.83,4.28,4.28,0,0,0,.11,1.1c.09.33.13.49.13.47a2,2,0,0,1,1.23-.16,7.76,7.76,0,0,1,2,.44.18.18,0,0,1-.11-.19,4.48,4.48,0,0,0,0-.74,9.79,9.79,0,0,0-.14-1.07,3.24,3.24,0,0,0-.29-.83,5.21,5.21,0,0,0-1.56-.36h-.09a1.53,1.53,0,0,0-1.19.51m25.78-.77s0,0-.15,0c-.34,0-.49.2-.49.6a2.82,2.82,0,0,0,.08.69,2.82,2.82,0,0,1,.12.77V282h0c.32,0,.52-.05.58-.13s0-.09,0-.18l-.09-1.1.07.08a.44.44,0,0,1,0-.16,3.06,3.06,0,0,1-.05-.56c0-.09,0-.14,0-.14l0,0m93.74-.14-.1,0,.1,0M373.09,280a1.29,1.29,0,0,0-.09.8,5.92,5.92,0,0,0,.36,1.59c.15-.14.55-.2,1.22-.16a8.59,8.59,0,0,1,2.08.45.22.22,0,0,1-.15-.2,5,5,0,0,0-.05-.72,8.36,8.36,0,0,0-.2-1.07,2.61,2.61,0,0,0-.36-.85,5.82,5.82,0,0,0-1.59-.36h-.09a1.33,1.33,0,0,0-1.13.52m121.72,0a1.29,1.29,0,0,0-.09.8,6.25,6.25,0,0,0,.35,1.59,2,2,0,0,1,1.23-.16,8.59,8.59,0,0,1,2.08.45.22.22,0,0,1-.15-.2,5,5,0,0,0-.05-.72,8.36,8.36,0,0,0-.2-1.07,2.61,2.61,0,0,0-.36-.85,5.84,5.84,0,0,0-1.58-.36H496a1.34,1.34,0,0,0-1.14.52m-116.09,0a.73.73,0,0,0-.11.47l0,.4a3.45,3.45,0,0,0,.22,1.05l.14.47a1.72,1.72,0,0,1,1-.18,7.38,7.38,0,0,1,2.15.41c0-.17,0-.39,0-.65a10.5,10.5,0,0,0-.23-1.32,2.56,2.56,0,0,0-.35-.81,4.45,4.45,0,0,0-1.23-.33l-.51-.05a1.22,1.22,0,0,0-1.08.54m121.72,0a.73.73,0,0,0-.11.47l0,.4a3.45,3.45,0,0,0,.22,1.05l.14.47a1.74,1.74,0,0,1,1-.18,7.1,7.1,0,0,1,2.14.42c0-.18,0-.4,0-.66a10.36,10.36,0,0,0-.22-1.32,2.8,2.8,0,0,0-.36-.81,4.45,4.45,0,0,0-1.23-.33l-.52-.05a1.22,1.22,0,0,0-1.07.54m-42.81-.54h-.14a.46.46,0,0,0-.49.35,1,1,0,0,0,0,.23,1.15,1.15,0,0,0,.09.44c0,.2.11.47.15.79v0c0,.23-.1.35-.27.38a1.08,1.08,0,0,0,.32.2.69.69,0,0,0,.4.12c.16,0,.25-.12.25-.36l0-1-.12-.26a1.61,1.61,0,0,1-.13-.62v-.3s0,0,0,0Zm1.87-.33a.42.42,0,0,0-.46.36.63.63,0,0,0-.05.31,2.25,2.25,0,0,0,.11.74,6.61,6.61,0,0,1,.11.78c0,.24-.09.36-.27.38a1.08,1.08,0,0,0,.32.2.75.75,0,0,0,.42.12h.05a.19.19,0,0,0,.16-.09.76.76,0,0,0,0-.27,6.44,6.44,0,0,0-.16-1,4.42,4.42,0,0,1-.15-1.11,2.09,2.09,0,0,1,0-.45h-.14m.14,0s0,0,0,0l0,0m-60.17-.59a6.8,6.8,0,0,1-.94.05c-.24,0-.49,0-.71,0s-.47,0-.67,0h-.34a1.73,1.73,0,0,0-.71.14,1.3,1.3,0,0,0-.86,1.25,1.38,1.38,0,0,0,0,.36c.11.56,1.12,1.09,3,1.59-1.09.17-1.69.29-1.83.33-.36.18-.56.38-.56.56a2.83,2.83,0,0,0,0,.31,1.58,1.58,0,0,0,.2.87,2.11,2.11,0,0,1,1-.31c.46,0,.89-.09,1.29-.09l.94,0c.27,0,.54,0,.81,0a1.55,1.55,0,0,0,.8-.22c.16-.13.25-.47.25-1v-.42a5,5,0,0,1-1.36.11,6.37,6.37,0,0,1-2.13-.31,1.57,1.57,0,0,1-1.16-1.12v-.09c0-.31.18-.47.58-.49l.18,0c.2,0,.42,0,.69.05a9.68,9.68,0,0,0,1.14.07A2.28,2.28,0,0,0,400,280c.38-.16.58-.33.61-.54s0-.29,0-.33a1.62,1.62,0,0,0-.22-.85,1.77,1.77,0,0,1-.9.33m111.8,0a.76.76,0,0,0,0,.32,2.33,2.33,0,0,0,0,.51,5.63,5.63,0,0,0,.38,1.16,2.63,2.63,0,0,0,.27.54c.11-.13.47-.2,1.05-.2a7.57,7.57,0,0,1,2.24.42,4.55,4.55,0,0,0-.13-1,7.31,7.31,0,0,0-.36-1.12,2.37,2.37,0,0,0-.58-.78,3.08,3.08,0,0,0-1.63-.47,1.32,1.32,0,0,0-1.24.58m20.14-.29a1.48,1.48,0,0,0,0,.85,5,5,0,0,0,.39,1.14,2.13,2.13,0,0,0,.27.56c.15-.16.58-.22,1.27-.18a8.83,8.83,0,0,1,2.26.48c-.16-.06-.25-.14-.25-.23a4.37,4.37,0,0,0-.13-.72,8.58,8.58,0,0,0-.38-1.11,1.74,1.74,0,0,0-.61-.79,4,4,0,0,0-1.67-.51h-.09a1.11,1.11,0,0,0-1.06.51m-50.88,0c-.8.34-1.25.7-1.34,1.1a15.77,15.77,0,0,0,0,4.51,47.2,47.2,0,0,0,.78,4.81c.2,1.08.38,2.11.53,3.11a69,69,0,0,1,.29,7.2,6.27,6.27,0,0,0,2.87-.65,2.11,2.11,0,0,0,1-1.63,9.47,9.47,0,0,0-.09-2.59c-.15-1.12-.36-2.42-.62-3.85-.4-2.08-.72-4.27-1-6.55a24.24,24.24,0,0,1,0-6,6.93,6.93,0,0,0-2.35.55m83.37,0c-.8.34-1.25.7-1.34,1.1a16.12,16.12,0,0,0,0,4.51c.18,1.61.45,3.2.79,4.81.2,1.08.38,2.11.54,3.11s.24,3.42.29,7.2a6.25,6.25,0,0,0,2.86-.65,2.12,2.12,0,0,0,1-1.63,10.36,10.36,0,0,0-.09-2.59c-.16-1.12-.36-2.42-.63-3.85-.4-2.08-.72-4.27-1-6.55a24.78,24.78,0,0,1,0-6,7,7,0,0,0-2.35.55M407.48,291.54s.07,0,0,0h0l0,0m25.47-.31s.06,0,0,0h0v0m-15.05,4.38a2.8,2.8,0,0,1-.89-2.12,5.18,5.18,0,0,1,1.74-3.83,3,3,0,0,1,1.16-.8,3.31,3.31,0,0,1,.72-.13,1.89,1.89,0,0,1,1.16.44,2.36,2.36,0,0,1,.87,1.3,5.77,5.77,0,0,1,.14,1.12,4.19,4.19,0,0,1-.07.78,6.31,6.31,0,0,1-.47,1.5,3.27,3.27,0,0,1-2.95,2.23,2.28,2.28,0,0,1-1.41-.49m54.94-17.39c-.8.33-1.25.69-1.34,1.07a14.1,14.1,0,0,0-.2,2.44,35.91,35.91,0,0,0,.92,6.91c.49,2.54.8,4.36.89,5.38,0,.36-.22.76-.76,1.21a2.73,2.73,0,0,1-2.44.31,5.26,5.26,0,0,1-1.88-.81c-.1-.64-.22-1.3-.35-2-.21-.9-.36-1.77-.49-2.66a12.27,12.27,0,0,1-.14-2.53,4.33,4.33,0,0,1,.42-1.83,4.81,4.81,0,0,0-2-.4,3.07,3.07,0,0,0-1.85.55,2.74,2.74,0,0,0-1,1.68,6.85,6.85,0,0,0-.09,2.26c.09.76.22,1.59.4,2.46s.34,1.85.47,2.9-.25,1.12-.87.59a10.88,10.88,0,0,1-1.86-2.06,13.52,13.52,0,0,1-1.5-2.82,4.63,4.63,0,0,1-.29-2.79,2.84,2.84,0,0,1,.32-1,5.06,5.06,0,0,0-2-.4,3,3,0,0,0-1.83.54,2.58,2.58,0,0,0-1,1.67,4.92,4.92,0,0,0-.09,1.72,8.24,8.24,0,0,0,.31,1.59,28.18,28.18,0,0,1,.56,3c.05.81-.16,1-.63.74a4.93,4.93,0,0,1-1.31-1.21,10.76,10.76,0,0,1-1.1-1.65,3,3,0,0,1-.45-1.48c0-.29,0-.6-.09-.93a9.94,9.94,0,0,1-.11-1.33,2,2,0,0,1,.14-.89,5,5,0,0,0-2-.38,3,3,0,0,0-1.85.54,2.62,2.62,0,0,0-1,1.65,6.35,6.35,0,0,0,0,2c.09.67.2,1.36.36,2.08,0,.06,0,.47,0,1.2s-.31,1.1-1,1.1-1.39-.56-2.06-1.7l-.24-.41A5,5,0,0,0,444,294a17.1,17.1,0,0,0,.26-2.52,21.51,21.51,0,0,0-.55-4.36,1.76,1.76,0,0,0-.83-1.44,3.3,3.3,0,0,0-1.41-.33,3.71,3.71,0,0,0-.74.07,5.42,5.42,0,0,0-2.06.76,5.68,5.68,0,0,1,.63,1.72,9.47,9.47,0,0,1,.33,2.14c0,.56,0,.88,0,1a10.33,10.33,0,0,1-.29,2.41,2.73,2.73,0,0,1-1.23,1.81,2.94,2.94,0,0,1-1.25.34,1.75,1.75,0,0,1-.9-.23,3.24,3.24,0,0,1-1.13-.87c0-.14.06-.27.08-.4a16.58,16.58,0,0,0,.27-2.57,20.4,20.4,0,0,0-.54-4.32,1.76,1.76,0,0,0-.85-1.41,3.14,3.14,0,0,0-1.41-.33,4.44,4.44,0,0,0-.71.06,5.75,5.75,0,0,0-2.08.74,5.31,5.31,0,0,1,.65,1.72,12.14,12.14,0,0,1,.33,2.13c0,.56,0,.89,0,1a9.91,9.91,0,0,1-.29,2.42,2.69,2.69,0,0,1-1.23,1.81,2.85,2.85,0,0,1-1.25.33,1.66,1.66,0,0,1-.89-.22,3.27,3.27,0,0,1-1.05-.78,15.62,15.62,0,0,0,.45-1.68,6.58,6.58,0,0,0,.14-1.32,6.44,6.44,0,0,0-2.15-4.76,5.52,5.52,0,0,0-2.75-1.37,10.12,10.12,0,0,0-1.3-.1,6.48,6.48,0,0,0-4.07,1.36,7.82,7.82,0,0,0-2.93,5.14,9,9,0,0,0-.13,1.5,7.06,7.06,0,0,0,.18,1.62,2.63,2.63,0,0,1-1.92.84,2,2,0,0,1-.9-.21,3.75,3.75,0,0,1-1.45-1.33l-.1-.16v0c-.15-1.12-.36-2.42-.62-3.85-.41-2.08-.72-4.27-1-6.55a24.24,24.24,0,0,1,0-6,6.93,6.93,0,0,0-2.35.55c-.81.34-1.25.7-1.34,1.1a15.75,15.75,0,0,0-.05,4.51c.18,1.61.45,3.2.79,4.81.2,1.08.38,2.11.53,3.11a70.91,70.91,0,0,1,.3,7.2,6.21,6.21,0,0,0,2.85-.65,2.08,2.08,0,0,0,1-1.53l.3.35a4.06,4.06,0,0,0,2.41,1.87c.71.07,1.19.14,1.39.14a4.78,4.78,0,0,0,2.67-.88A6.87,6.87,0,0,0,418,299a10.48,10.48,0,0,0,2,.18,5.82,5.82,0,0,0,4.74-2.26,5.5,5.5,0,0,0,.48-.71c.18.24.36.47.56.69a4.2,4.2,0,0,0,2,1.63,5.87,5.87,0,0,0,1.9.36,5,5,0,0,0,3.89-1.9,5.86,5.86,0,0,0,.64-.89,6.26,6.26,0,0,0,.6.76,4.33,4.33,0,0,0,2,1.63,5.68,5.68,0,0,0,1.88.35,4.9,4.9,0,0,0,3.91-1.92,6.85,6.85,0,0,0,.72-1,5.59,5.59,0,0,0,1.91,2,6.51,6.51,0,0,0,3.84,1.05,2.78,2.78,0,0,0,2.26-1.12,5.11,5.11,0,0,0,.45-2.92,15.75,15.75,0,0,0,2.3,2.47,10.66,10.66,0,0,0,1.88,1.17,4.26,4.26,0,0,0,2.28.49,1.72,1.72,0,0,0,1.46-.83,8.3,8.3,0,0,0,.15-3.64,15,15,0,0,0,2.41,2.75,10.62,10.62,0,0,0,1.93,1.23,4.32,4.32,0,0,0,2.3.49,1.68,1.68,0,0,0,1.47-.83l.06-.13a4.87,4.87,0,0,0,.77.54,6.53,6.53,0,0,0,3.07.82,9.21,9.21,0,0,0,2.37-.22,4.26,4.26,0,0,0,1.34-.76,3.21,3.21,0,0,0,1.3-1.61,4.46,4.46,0,0,0,.19-1.7c0-.56-.31-2.24-.8-5a56,56,0,0,1-1.21-9.88,17.2,17.2,0,0,1,.16-2.68,6.76,6.76,0,0,0-2.35.58m63.68,0a.6.6,0,0,0,0,.31,2.44,2.44,0,0,0,.06.52,4.53,4.53,0,0,0,.38,1.18,2.28,2.28,0,0,0,.3.54,1.86,1.86,0,0,1,1-.18,7.58,7.58,0,0,1,2.26.42v0a4.69,4.69,0,0,0-.14-1,6.06,6.06,0,0,0-.36-1.14,1.74,1.74,0,0,0-.6-.78,3,3,0,0,0-1.63-.49,1.3,1.3,0,0,0-1.27.6m3.49,13s0,0,0,0v0m-5.2.49a3.08,3.08,0,0,1-.87-1.27,3.72,3.72,0,0,1-.24-1.36,4.59,4.59,0,0,1,.38-1.86A3.16,3.16,0,0,1,535,286a2.34,2.34,0,0,1,1.45-.54,1.79,1.79,0,0,1,1.39.63,3.23,3.23,0,0,1,.73,1.41,6,6,0,0,1,.21,1.52v.24a4,4,0,0,1-.63,2,2.21,2.21,0,0,1-1.81,1,2.05,2.05,0,0,1-1.48-.57m21.4-13.54c-.8.33-1.25.69-1.34,1.07a15.16,15.16,0,0,0-.2,2.44,35.91,35.91,0,0,0,.92,6.91c.49,2.54.8,4.36.89,5.38,0,.36-.22.76-.76,1.21a2.72,2.72,0,0,1-2.43.31,5.27,5.27,0,0,1-2.31-1.13c0-.12.06-.24.08-.36a17.21,17.21,0,0,0,.26-2.53,21,21,0,0,0-.56-4.38,1.66,1.66,0,0,0-.82-1.41,3,3,0,0,0-1.41-.33,5,5,0,0,0-.74.06,5.86,5.86,0,0,0-2.08.76,5.14,5.14,0,0,1,.65,1.7,13.75,13.75,0,0,1,.34,2.17c0,.56,0,.87,0,1a10.14,10.14,0,0,1-.29,2.44,2.91,2.91,0,0,1-1.25,1.81,2.87,2.87,0,0,1-1.26.31,2.07,2.07,0,0,1-.89-.2,3.21,3.21,0,0,1-1-.69,12.35,12.35,0,0,0,1-6.11,6.18,6.18,0,0,0-1.12-3.13,5.7,5.7,0,0,0-2.42-1.85,7.7,7.7,0,0,0-3.21-.54,7.58,7.58,0,0,0-3.63.8,5.26,5.26,0,0,0-2.17,2.11,4.68,4.68,0,0,0-.46,2.82,5.41,5.41,0,0,0,1.83,4,5.78,5.78,0,0,0,3.57,1.56,5.33,5.33,0,0,0,3.34-.87c-1.79,2.41-3.92,3.38-6.33,2.93s-3.94-1.26-4.79-2.53c-.15-1.06-.34-2.28-.59-3.62-.41-2.08-.72-4.27-1-6.55a25.25,25.25,0,0,1,0-6,6.87,6.87,0,0,0-2.35.55c-.81.34-1.25.7-1.34,1.1a16.12,16.12,0,0,0,0,4.51c.18,1.61.45,3.2.79,4.81.2,1.08.38,2.11.53,3.11A69,69,0,0,1,524,299a6.25,6.25,0,0,0,2.86-.65,2.1,2.1,0,0,0,.55-.47l0,.07a8.33,8.33,0,0,0,3.34,2.24,6.4,6.4,0,0,0,2,.29,15.89,15.89,0,0,0,3.51-.47,7.91,7.91,0,0,0,5-3.75c.17.23.36.45.55.66a4.2,4.2,0,0,0,2,1.63,5.81,5.81,0,0,0,1.88.36,5,5,0,0,0,3.92-1.9,5.72,5.72,0,0,0,.37-.49,6.15,6.15,0,0,0,2.12,2.15,6.56,6.56,0,0,0,3.07.82,9.21,9.21,0,0,0,2.37-.22,4.15,4.15,0,0,0,1.34-.76,3.13,3.13,0,0,0,1.29-1.61,4.47,4.47,0,0,0,.21-1.7c0-.56-.32-2.24-.81-5a57,57,0,0,1-1.21-9.88,18.53,18.53,0,0,1,.16-2.68,6.81,6.81,0,0,0-2.35.58m-10.59-1.66a1.81,1.81,0,0,0-.2,1,5,5,0,0,0,.13,1.21,2.1,2.1,0,0,0,.18.58c.18-.18.65-.24,1.39-.2a9.27,9.27,0,0,1,2.31.5.23.23,0,0,1-.15-.25,5.53,5.53,0,0,0,0-.83,10.25,10.25,0,0,0-.15-1.21,3.47,3.47,0,0,0-.34-.94,5.78,5.78,0,0,0-1.77-.4H547a1.65,1.65,0,0,0-1.34.58"/></clipPath><linearGradient id="linear-gradient-12" x1="-28.11" y1="-48.1" x2="-26.68" y2="-48.1" gradientTransform="matrix(356.3, 0, 0, -356.3, 10244.78, -16812.29)" gradientUnits="userSpaceOnUse"><stop offset="0" stop-color="#0066e8"/><stop offset="0.3" stop-color="#0066e8"/><stop offset="0.34" stop-color="#0061e1"/><stop offset="0.39" stop-color="#0052cc"/><stop offset="0.46" stop-color="#0039aa"/><stop offset="0.53" stop-color="#00187c"/><stop offset="0.54" stop-color="#001578"/><stop offset="0.56" stop-color="#002791"/><stop offset="0.62" stop-color="#0056d2"/><stop offset="0.64" stop-color="#0066e8"/><stop offset="0.68" stop-color="#0058d4"/><stop offset="0.76" stop-color="#0033a1"/><stop offset="0.82" stop-color="#001578"/><stop offset="1" stop-color="#001578"/></linearGradient><clipPath id="clip-path-15" transform="translate(22.22 35.93)"><rect class="cls-1" x="36" y="25" width="253" height="332.65"/></clipPath><clipPath id="clip-path-16" transform="translate(22.22 35.93)"><path class="cls-1" d="M180,63.76c-55.18,21.47-80.07,66.91-86.46,78.37-19.32,34.62-22.23,72.94-24.28,94.56-.83,8.81,3.54,16.17,3.41,21.29H269.41V55.67a170.33,170.33,0,0,0-30.72-2.8A161.63,161.63,0,0,0,180,63.76"/></clipPath><radialGradient id="radial-gradient" cx="-29.29" cy="-47.58" r="0.43" gradientTransform="matrix(859.98, 0, 0, -859.98, 25212.89, -40739.23)" gradientUnits="userSpaceOnUse"><stop offset="0" stop-color="#29b6f6"/><stop offset="0.13" stop-color="#1d8fcd"/><stop offset="0.27" stop-color="#126eab"/><stop offset="0.4" stop-color="#0a5490"/><stop offset="0.54" stop-color="#05427c"/><stop offset="0.68" stop-color="#013771"/><stop offset="0.83" stop-color="#00336d"/><stop offset="1" stop-color="#00336d"/></radialGradient><clipPath id="clip-path-17" transform="translate(22.22 35.93)"><path class="cls-1" d="M71.78,261.82C72.72,278,73,297,76.46,316.07c1.77,9.63,6.39,17.73,6,26.24,31.59-.07,62.54-.05,93.49,0s61.9,0,93.49,0V261.82c-33.65.07-66.23,0-98.82,0-18.81,0-37.62-.05-56.64-.05-13.92,0-27.95,0-42.17.05"/></clipPath><radialGradient id="radial-gradient-2" cx="-28.85" cy="-47.64" r="0.43" gradientTransform="matrix(0, 699.24, 725.34, 0, 34709.42, 20375)" gradientUnits="userSpaceOnUse"><stop offset="0" stop-color="#29b6f6"/><stop offset="0.06" stop-color="#22a1e0"/><stop offset="0.19" stop-color="#187fbd"/><stop offset="0.32" stop-color="#0f64a0"/><stop offset="0.45" stop-color="#084e89"/><stop offset="0.6" stop-color="#043f79"/><stop offset="0.77" stop-color="#013670"/><stop offset="1" stop-color="#00336d"/></radialGradient></defs><g class="cls-2"><g class="cls-3"><rect class="cls-4" x="476.64" y="65.05" width="153.65" height="151.94" transform="translate(205.01 611.49) rotate(-63.83)"/></g><g class="cls-5"><rect class="cls-6" x="436.86" y="138.37" width="159.6" height="110.41"/></g><g class="cls-7"><rect class="cls-8" x="387.39" y="89.21" width="139.18" height="189.22"/></g><g class="cls-9"><rect class="cls-10" x="535.54" y="88.23" width="25.87" height="22.92"/></g><g class="cls-11"><rect class="cls-10" x="560.69" y="88.23" width="24.72" height="22.92"/></g><g class="cls-12"><rect class="cls-13" x="583.68" y="88.3" width="20.22" height="22.92"/></g><g class="cls-14"><rect class="cls-15" x="544.05" y="239.67" width="5.45" height="4.85"/></g><g class="cls-16"><rect class="cls-17" x="536.9" y="239.67" width="5.45" height="4.85"/></g><g class="cls-18"><rect class="cls-19" x="533.1" y="247.09" width="72.96" height="22.78"/></g><g class="cls-20"><rect class="cls-21" x="560.92" y="240.51" width="5.45" height="4.91"/></g><g class="cls-20"><rect class="cls-22" x="560.92" y="240.51" width="5.45" height="4.91"/></g><g class="cls-23"><rect class="cls-24" x="391.82" y="311.91" width="239.02" height="28.38"/></g><g class="cls-2"><line class="cls-25" x1="393.23" y1="298.67" x2="630.34" y2="298.67"/><line class="cls-25" x1="393.23" y1="363.06" x2="431.91" y2="363.06"/><line class="cls-25" x1="592.12" y1="363.06" x2="630.81" y2="363.06"/></g><text class="cls-26" transform="translate(442.96 371.64)"><tspan xml:space="preserve">2021  </tspan></text><text class="cls-27" transform="translate(511.01 371.64)"><tspan xml:space="preserve">-  </tspan></text><text class="cls-26" transform="translate(528.16 371.64)">1991</text></g><g class="cls-28"><g class="cls-29"><rect class="cls-30" x="29.9" y="15.73" width="277.99" height="279.39" transform="translate(-33.73 145.26) rotate(-31.03)"/></g><g class="cls-31"><rect class="cls-32" x="113.85" y="197.76" width="113.49" height="208.58" transform="translate(-134.17 453.79) rotate(-80.05)"/></g><g class="cls-28"><rect class="cls-33" x="251.32" y="267.82" width="26.52" height="26.52"/><rect class="cls-33" x="251.32" y="224.67" width="26.52" height="26.52"/><rect class="cls-33" x="251.32" y="178.38" width="26.52" height="26.52"/><rect class="cls-33" x="251.32" y="133.41" width="26.52" height="26.52"/><rect class="cls-33" x="251.32" y="92.03" width="26.52" height="26.52"/><line class="cls-34" x1="235.19" y1="293.91" x2="234.98" y2="92.45"/><line class="cls-35" x1="235.19" y1="293.91" x2="234.98" y2="92.45"/><line class="cls-34" x1="235.41" y1="217.89" x2="104.65" y2="217.89"/><line class="cls-35" x1="235.41" y1="217.89" x2="104.65" y2="217.89"/><line class="cls-34" x1="235.41" y1="140.37" x2="144.68" y2="140.37"/><line class="cls-35" x1="235.41" y1="140.37" x2="144.68" y2="140.37"/><rect class="cls-33" x="101.24" y="293.91" width="190.39" height="3.83"/><path class="cls-36" d="M75.19,258c10-11.18,21.52-23,34.5-34.92,12.17-11.23,24.06-21.13,35.35-29.82a66.82,66.82,0,0,0-32.8,9.37,67.89,67.89,0,0,0-18.74,17c-7,9-10.69,18.07-14.06,26.41-2,4.88-3.36,9-4.25,11.92" transform="translate(22.22 35.93)"/><path class="cls-36" d="M60.14,153.15A129.43,129.43,0,0,1,64,166.58c4.08,17.69,2.87,29.62,3.47,46a251.42,251.42,0,0,0,3.9,35.77A89.31,89.31,0,0,1,51.45,196.5a90.42,90.42,0,0,1,8.69-43.35" transform="translate(22.22 35.93)"/><path class="cls-36" d="M75.61,86.33a72.19,72.19,0,0,1,9.8,34.08c.11,5.53-.52,9.41-1.28,14.9-1.43,10.34-3.15,25.13-4.26,43.88-12.6-21.4-13.38-37.4-12.78-46,.57-8,3.18-21.63,4.26-27.26,1.57-8.17,3.12-14.91,4.26-19.6" transform="translate(22.22 35.93)"/><path class="cls-36" d="M82,196.22a340.7,340.7,0,0,1,58.78-75,79,79,0,0,1-13.63,43.44c-15.77,23-38.85,29.87-45.15,31.52" transform="translate(22.22 35.93)"/><path class="cls-36" d="M109.26,115.3a173,173,0,0,0,47.7-8.52,172.8,172.8,0,0,0,41.32-20c-24.28-2.55-39.74,2.27-48.13,6-6.39,2.81-17.14,8.69-19.17,9.8-9.17,5-16.58,9.53-21.72,12.78" transform="translate(22.22 35.93)"/><path class="cls-36" d="M120.33,104.22c0-7.34,1.19-22.1,11-35.93A68,68,0,0,1,144.7,54.71c15.44-12.22,32.66-17.31,45.49-19.49a192,192,0,0,1-31.87,28.63c-5.18,3.67-7.49,4.85-11.58,8a94.28,94.28,0,0,0-26.41,32.37" transform="translate(22.22 35.93)"/><path class="cls-36" d="M169.74,68.87a87.82,87.82,0,0,1,32.39-18.75c32-10.12,59.74,2,67.28,5.55q-28.53,3.27-57.93,7.24-21.14,2.85-41.74,6" transform="translate(22.22 35.93)"/><path class="cls-37" d="M78.17,341q-4-19.11-6.33-38.45c-1.57-12.89-2.59-25.84-3-38.82a347.36,347.36,0,0,1,.92-39c.12-1.63.29-3.25.43-4.87l.44-4.67.76-9.53c.52-6.43,1.19-12.94,2.22-19.42A155.28,155.28,0,0,1,77.91,167,123.77,123.77,0,0,1,85,148.44c1.44-3,3-5.94,4.67-8.78l.63-1.07.66-1.05,1.32-2.11,1.39-2.05.57-.84.68-1.08a182,182,0,0,1,11.61-15.74,197.82,197.82,0,0,1,27.36-27.54,159.89,159.89,0,0,1,15.74-11.4c.67-.45,1.36-.87,2.06-1.28l2.08-1.26q2.1-1.23,4.23-2.38c1.42-.77,2.85-1.51,4.29-2.24l2.17-1.08,1.08-.53.55-.26.28-.13.14-.06.05,0a1.37,1.37,0,0,0-.2.13l.29-.17a150.33,150.33,0,0,1,18.51-7.12q4.73-1.47,9.55-2.6c3.21-.76,6.44-1.42,9.69-2a146.06,146.06,0,0,1,39.27-1.22,145.15,145.15,0,0,0-38.93,3c-3.19.67-6.34,1.46-9.47,2.36s-6.22,1.87-9.27,3a146.48,146.48,0,0,0-17.79,7.78l.28-.18-.32.2-.09,0-.13.07-.26.14-.52.27-1,.57L164,72.94c-1.37.77-2.74,1.57-4.09,2.38s-2.68,1.64-4,2.49l-2,1.31c-.65.43-1.31.87-1.94,1.33A152.85,152.85,0,0,0,137.3,92.18,191.93,191.93,0,0,0,112,120a174.77,174.77,0,0,0-10.42,15.54l-.56,1-.71,1.18-1.2,2-1.14,2-.56,1-.54,1c-1.46,2.7-2.74,5.49-3.95,8.31A127,127,0,0,0,84,187.71c-.69,6.16-1,12.37-1.28,18.68L82.38,216l-.46,9.56a335.84,335.84,0,0,0,.71,37.53Q84,281.83,87.1,300.41t7.67,36.8Z" transform="translate(22.22 35.93)"/><path class="cls-37" d="M74.36,254a86.78,86.78,0,0,1-10.74-19.19,106.78,106.78,0,0,1-6.18-21.21c-.67-3.63-1.12-7.3-1.43-11-.12-1.84-.26-3.67-.29-5.52s0-3.68,0-5.52a96.14,96.14,0,0,1,.89-11,77.36,77.36,0,0,1,2.22-10.77c.32,7.32.59,14.5,1.24,21.63.33,3.55.7,7.1,1.17,10.63l.37,2.64.18,1.32.22,1.31c.14.88.26,1.76.41,2.63l.48,2.63q1.9,10.49,4.83,20.78,1.47,5.16,3.15,10.29c.55,1.71,1.14,3.42,1.72,5.14Z" transform="translate(22.22 35.93)"/><path class="cls-37" d="M132.47,195.58c-2.79,1.88-5.58,3.72-8.26,5.7s-5.32,4-7.87,6.09A142.27,142.27,0,0,0,102,221c-2.23,2.42-4.38,4.93-6.42,7.51s-4,5.23-5.91,8a190.17,190.17,0,0,0-10.41,17.06A85.15,85.15,0,0,1,87.38,235a91.32,91.32,0,0,1,5.6-8.48c1-1.38,2.08-2.69,3.13-4,.55-.65,1.11-1.29,1.66-1.93l.83-1,.87-.94a95.47,95.47,0,0,1,15.25-13.43,84.65,84.65,0,0,1,17.75-9.66" transform="translate(22.22 35.93)"/><path class="cls-37" d="M76.91,111.71c-.12,1.36-.24,2.71-.32,4.07s-.17,2.71-.22,4.07q-.15,4.07-.05,8.11t.41,8.08c.19,2.69.48,5.36.85,8s.9,5.29,1.49,7.91,1.12,5.22,1.58,7.86l1.4,7.94c.46,2.67.92,5.36,1.23,8.14l-.43.16a45.35,45.35,0,0,1-4-7.35,61.9,61.9,0,0,1-2.79-7.84,49.26,49.26,0,0,1-1.6-8.16c-.29-2.76-.46-5.53-.64-8.29s-.25-5.52-.24-8.28.16-5.51.37-8.25.55-5.48,1-8.19c.21-1.35.43-2.71.68-4s.54-2.69.83-4Z" transform="translate(22.22 35.93)"/><path class="cls-37" d="M136.91,130.06A122.62,122.62,0,0,1,128,149.34q-2.66,4.62-5.68,9c-2,2.93-4.21,5.75-6.48,8.5s-4.61,5.45-7.09,8a71.4,71.4,0,0,1-8,7.16,81.77,81.77,0,0,1-8.88,6,66.7,66.7,0,0,1-9.6,4.71l-.19-.33c2.77-2.24,5.54-4.39,8.26-6.6s5.37-4.44,8-6.74,5.2-4.59,7.77-6.92a100.61,100.61,0,0,0,7.43-7.32c2.35-2.58,4.61-5.23,6.73-8s4.19-5.59,6.11-8.52,3.75-5.92,5.43-9c.85-1.54,1.67-3.1,2.44-4.67s1.55-3.16,2.28-4.76Z" transform="translate(22.22 35.93)"/><path class="cls-37" d="M172.94,91.66c-6.74,2.92-13.54,5.65-20.37,8.31-3.4,1.35-6.84,2.62-10.26,3.93s-6.86,2.56-10.26,3.89c-1.7.65-3.4,1.3-5.05,2a52.75,52.75,0,0,0-4.82,2.4,73.11,73.11,0,0,0-9,6c-.72.55-1.41,1.14-2.11,1.71s-1.38,1.18-2,1.8c-1.36,1.2-2.64,2.49-3.92,3.79A101.32,101.32,0,0,0,98,133.82a71.07,71.07,0,0,1,6.34-9,66.72,66.72,0,0,1,7.8-7.88,63.73,63.73,0,0,1,9.07-6.46,48.64,48.64,0,0,1,5-2.55c1.7-.76,3.41-1.44,5.13-2.11,3.44-1.3,6.88-2.55,10.33-3.79s6.91-2.43,10.38-3.6c6.94-2.36,13.9-4.66,20.94-6.75" transform="translate(22.22 35.93)"/><path class="cls-37" d="M163.14,49.49c-4.35,3.67-8.68,7.3-12.89,11-2.09,1.9-4.2,3.77-6.23,5.72s-4.08,3.88-6,5.9c-1,1-2,2-2.9,3s-1.87,2.07-2.75,3.14a39.59,39.59,0,0,0-2.49,3.3c-.77,1.15-1.53,2.32-2.24,3.52A71.25,71.25,0,0,0,121,100.6a48.16,48.16,0,0,1,4.89-16.4c.31-.65.67-1.28,1-1.92s.72-1.25,1.11-1.87c.76-1.23,1.6-2.44,2.48-3.59a72,72,0,0,1,5.72-6.45c2-2,4.09-4,6.22-5.89S146.71,60.75,149,59a116.13,116.13,0,0,1,14.17-9.52" transform="translate(22.22 35.93)"/><path class="cls-37" d="M95.58,72.58c-8.46,1.91-14.84,24.73-5.46,34.64,3.74,4,11,7,16.89,4.18,6.54-3.11,7.5-11.63,7.64-13.67,1-13-11.6-26.83-19.07-25.15" transform="translate(22.22 35.93)"/><path class="cls-38" d="M95.58,72.58c-8.46,1.91-14.84,24.73-5.46,34.64,3.74,4,11,7,16.89,4.18,6.54-3.11,7.5-11.63,7.64-13.67C115.61,84.73,103.05,70.9,95.58,72.58Z" transform="translate(22.22 35.93)"/><path class="cls-37" d="M101.38,127a44.44,44.44,0,0,0,2.56-16.19,42.67,42.67,0,0,0-.86-7.24" transform="translate(22.22 35.93)"/><path class="cls-39" d="M101.38,127a44.44,44.44,0,0,0,2.56-16.19,42.67,42.67,0,0,0-.86-7.24" transform="translate(22.22 35.93)"/><path class="cls-37" d="M137,136c4,7.7-9.35,27.27-23,26.49-5.43-.32-12.43-4-14.07-10.23-1.84-7,4.07-13.23,5.53-14.65,9.33-9.11,28-8.41,31.52-1.61" transform="translate(22.22 35.93)"/><path class="cls-38" d="M137,136c4,7.7-9.35,27.27-23,26.49-5.43-.32-12.43-4-14.07-10.23-1.84-7,4.07-13.23,5.53-14.65C114.79,128.53,133.46,129.23,137,136Z" transform="translate(22.22 35.93)"/><path class="cls-37" d="M86.49,166.75A43.85,43.85,0,0,1,98.7,155.83a44.53,44.53,0,0,1,6.55-3.21" transform="translate(22.22 35.93)"/><path class="cls-39" d="M86.49,166.75A43.85,43.85,0,0,1,98.7,155.83a44.53,44.53,0,0,1,6.55-3.21" transform="translate(22.22 35.93)"/><path class="cls-37" d="M190.24,95.55c-1.67,7.53-21.77,13.34-30.5,5.07-3.48-3.3-6.14-9.76-3.68-15,2.73-5.83,10.24-6.73,12-6.88,11.45-.93,23.63,10.15,22.15,16.8" transform="translate(22.22 35.93)"/><path class="cls-38" d="M190.24,95.55c-1.67,7.53-21.77,13.34-30.5,5.07-3.48-3.3-6.14-9.76-3.68-15,2.73-5.83,10.24-6.73,12-6.88C179.54,77.82,191.72,88.9,190.24,95.55Z" transform="translate(22.22 35.93)"/><path class="cls-37" d="M139.29,87.82a37.55,37.55,0,0,1,20.17,1.06" transform="translate(22.22 35.93)"/><path class="cls-39" d="M139.29,87.82a37.55,37.55,0,0,1,20.17,1.06" transform="translate(22.22 35.93)"/><path class="cls-37" d="M78.38,342.1H96.27q-1.5-4.89-3-9.79L76.68,330.6q.84,5.76,1.7,11.5" transform="translate(22.22 35.93)"/><path class="cls-40" d="M78.38,342.1H96.27q-1.5-4.89-3-9.79L76.68,330.6Q77.52,336.36,78.38,342.1Z" transform="translate(22.22 35.93)"/></g><text class="cls-41" transform="translate(119.87 366.51) rotate(-1.8)">FIFE</text><text class="cls-42" transform="matrix(1.09, -0.03, 0.03, 1, 248.9, 359.16)">J</text></g></svg>